<?xml version="1.0" encoding="UTF-8" standalone="no"?>
<svg
   version="1.1"
   width="474"
   height="474"
   id="svg85"
   sodipodi:docname="bash.svg"
   inkscape:version="1.3.2 (091e20ef0f, 2023-11-25, custom)"
   xmlns:inkscape="http://www.inkscape.org/namespaces/inkscape"
   xmlns:sodipodi="http://sodipodi.sourceforge.net/DTD/sodipodi-0.dtd"
   xmlns="http://www.w3.org/2000/svg"
   xmlns:svg="http://www.w3.org/2000/svg">
  <defs
     id="defs85" />
  <sodipodi:namedview
     id="namedview85"
     pagecolor="#ffffff"
     bordercolor="#000000"
     borderopacity="0.25"
     inkscape:showpageshadow="2"
     inkscape:pageopacity="0.0"
     inkscape:pagecheckerboard="0"
     inkscape:deskcolor="#d1d1d1"
     inkscape:zoom="1.6962025"
     inkscape:cx="237"
     inkscape:cy="237"
     inkscape:window-width="1920"
     inkscape:window-height="1008"
     inkscape:window-x="0"
     inkscape:window-y="0"
     inkscape:window-maximized="1"
     inkscape:current-layer="svg85" />
  <path
     d="M0 0 C0 0.66 0 1.32 0 2 C0.64582031 2.06445312 1.29164063 2.12890625 1.95703125 2.1953125 C6.31446196 3.34759841 9.83411841 5.57790451 13.6875 7.875 C14.51967041 8.36387695 15.35184082 8.85275391 16.20922852 9.35644531 C22.75339452 13.21663267 29.24120318 17.16918741 35.71289062 21.14941406 C40.76306326 24.25497999 45.85382015 27.27751958 50.98828125 30.2421875 C53.28879467 31.58489962 55.57547551 32.94348067 57.85546875 34.3203125 C58.52231689 34.7229834 59.18916504 35.1256543 59.8762207 35.54052734 C61.16891464 36.32274375 62.46049747 37.10680062 63.75073242 37.89306641 C67.42177823 40.11387772 71.13701245 42.13348002 75 44 C75 44.66 75 45.32 75 46 C75.82113281 46.23332031 76.64226562 46.46664062 77.48828125 46.70703125 C81.71384392 48.26282796 85.34253839 50.36826198 89.1875 52.6875 C89.93854004 53.13448242 90.68958008 53.58146484 91.46337891 54.04199219 C96.52358066 57.06790377 101.49784808 60.2133282 106.44921875 63.4140625 C110.03302563 65.64227934 113.73877061 67.61651316 117.45703125 69.609375 C120.30801019 71.16843568 123.04915947 72.84915868 125.7890625 74.59375 C128.59472269 76.37826885 131.42092991 78.12783082 134.25 79.875 C135.36375 80.56335938 136.4775 81.25171875 137.625 81.9609375 C140.79842491 83.87821505 144.01359859 85.6919084 147.25 87.5 C158.71568278 94.17947966 166.05859627 102.29992132 170 115 C169.67 115.66 169.34 116.32 169 117 C168.401875 116.525625 167.80375 116.05125 167.1875 115.5625 C163.88903384 113.20645274 161.19927818 112.8431621 157.25 112.8125 C156.02023437 112.79123047 156.02023437 112.79123047 154.765625 112.76953125 C148.85838121 113.26180157 144.19716424 115.20614075 139.25 118.375 C138.13496094 119.08140625 137.01992188 119.7878125 135.87109375 120.515625 C135.25991699 120.90814453 134.64874023 121.30066406 134.01904297 121.70507812 C130.95942064 123.66738004 127.88473405 125.60570363 124.81152344 127.54663086 C123.14614432 128.59847494 121.48142961 129.65137169 119.81738281 130.70532227 C114.99622822 133.75570817 110.14697218 136.74443185 105.23828125 139.65234375 C101.76131406 141.74580567 98.35473114 143.94755505 94.9375 146.13671875 C90.67016136 148.84352797 86.35705954 151.47414132 82.04296875 154.10546875 C79.95807617 155.40350842 77.8962074 156.73906113 75.85546875 158.10546875 C73.63777546 159.57685212 71.47306794 160.8876364 69.125 162.125 C64.71743761 164.54061176 60.44954806 167.15162981 56.1875 169.8125 C55.24704834 170.39765381 55.24704834 170.39765381 54.28759766 170.99462891 C50.26376232 173.51956779 46.30952605 176.13281162 42.37109375 178.7890625 C35.0846863 183.66443779 27.58163442 188.15247537 20.05810547 192.64819336 C11.73427799 197.62880746 3.47631644 202.67407087 -4.14892578 208.69750977 C-6 210 -6 210 -8 210 C-8.3403125 210.804375 -8.3403125 210.804375 -8.6875 211.625 C-10 214 -10 214 -12.375 216.625 C-18.29989285 223.49647336 -20.11865091 232.48865472 -20.14717102 241.28518677 C-20.15084771 242.02067179 -20.1545244 242.7561568 -20.1583125 243.51392925 C-20.16932925 245.9795081 -20.17318978 248.44504477 -20.17700195 250.91064453 C-20.18326819 252.67823927 -20.18991513 254.4458327 -20.19691467 256.21342468 C-20.21794076 262.01987798 -20.22831661 267.8263315 -20.23828125 273.6328125 C-20.24232953 275.63356413 -20.24644648 277.63431563 -20.25063133 279.63506699 C-20.26968085 289.03661601 -20.28391165 298.43815719 -20.2922433 307.8397218 C-20.30201121 318.68227107 -20.32832014 329.52461594 -20.36874419 340.36709321 C-20.39893579 348.75367437 -20.41371512 357.14019706 -20.41702431 365.52683151 C-20.41937157 370.53281277 -20.4282897 375.53857562 -20.45348549 380.54449844 C-20.47682407 385.25758359 -20.48097621 389.97030741 -20.47072411 394.68343544 C-20.47023002 396.40791211 -20.47651276 398.13240691 -20.49028015 399.85682869 C-20.58203066 412.03596185 -19.71295497 421.80299197 -11 431 C-23.69313513 432.21530017 -32.06656112 429.47047529 -43 423 C-44.65041258 422.04719225 -46.30088681 421.09448963 -47.9524231 420.14363098 C-56.01047278 415.49992237 -64.0107017 410.76072839 -72 406 C-72.98210449 405.41573242 -73.96420898 404.83146484 -74.97607422 404.22949219 C-82.31215939 399.86091631 -89.62714104 395.45901812 -96.90625 390.99609375 C-97.70973877 390.50351074 -98.51322754 390.01092773 -99.34106445 389.50341797 C-100.83829734 388.58398518 -102.33435384 387.66263208 -103.82885742 386.73876953 C-108.14126162 384.0855333 -112.51743942 381.59020682 -116.95336914 379.1496582 C-119.49676343 377.72095205 -121.93812936 376.16529977 -124.375 374.5625 C-127.91388688 372.2815577 -131.46892737 370.16107528 -135.1875 368.1875 C-142.06061111 364.51461971 -148.58592732 360.30242733 -155.17285156 356.14697266 C-160.48577264 352.81184395 -165.85584169 349.60593577 -171.375 346.625 C-178.62766206 342.63021822 -186.49955726 338.28435382 -192 332 C-192 331.34 -192 330.68 -192 330 C-192.99 329.67 -193.98 329.34 -195 329 C-196.5 327.1015625 -196.5 327.1015625 -198 324.625 C-198.495 323.83351563 -198.99 323.04203125 -199.5 322.2265625 C-204.41917925 311.64520297 -204.43631379 301.11032613 -204.40405273 289.68383789 C-204.40976405 287.84948818 -204.41673124 286.01514202 -204.42485046 284.18080139 C-204.44271218 279.22620785 -204.44162676 274.2717921 -204.43590808 269.3171761 C-204.43280629 265.16972958 -204.43891962 261.02231672 -204.44494683 256.87487501 C-204.45896732 247.08558125 -204.45745122 237.29637481 -204.44604492 227.50708008 C-204.43456422 217.43171252 -204.4486443 207.35661116 -204.4754414 197.28127867 C-204.49764114 188.60746141 -204.5042262 179.93372745 -204.49836498 171.25988382 C-204.49500467 166.08964974 -204.49734886 160.91958629 -204.51461601 155.7493763 C-204.53015151 150.88596039 -204.52605669 146.02293713 -204.50731087 141.15953636 C-204.50364331 139.38269243 -204.50667948 137.60581897 -204.51719666 135.82900238 C-204.60662892 119.46067514 -201.71440671 107.35378379 -190.16015625 95.0390625 C-181.73218661 87.16345451 -170.94763408 81.92660157 -160.93017578 76.34716797 C-155.77502262 73.46652789 -150.74667432 70.41630452 -145.734375 67.29296875 C-139.96222017 63.72181235 -134.09311808 60.31061261 -128.24487305 56.86621094 C-122.70906008 53.60453637 -117.18839226 50.32019158 -111.6875 47 C-107.95149565 44.7462688 -104.20518813 42.52857568 -100.375 40.4375 C-93.30557746 36.57413436 -86.40660231 32.31191475 -79.7421875 27.7890625 C-77.27310778 26.17818143 -75.77019101 25.6686668 -73 25 C-72.57178955 24.55938232 -72.1435791 24.11876465 -71.70239258 23.66479492 C-69.63207404 21.64019975 -67.45740047 20.3736117 -64.94921875 18.92578125 C-63.94697266 18.3440918 -62.94472656 17.76240234 -61.91210938 17.16308594 C-60.84798828 16.55239258 -59.78386719 15.94169922 -58.6875 15.3125 C-57.60404297 14.68762695 -56.52058594 14.06275391 -55.40429688 13.41894531 C-53.24881111 12.1762878 -51.09241702 10.93520435 -48.93505859 9.69580078 C-46.47215156 8.27279693 -44.02289075 6.83142213 -41.58203125 5.37109375 C-28.60155647 -2.36481347 -14.75401402 -4.91800467 0 0 Z "
     fill="#1A1A1A"
     transform="translate(248,22)"
     id="path2"
     style="fill:#ffffff;fill-opacity:1" />
  <path
     d="M0 0 C3.97959555 2.5434202 8.03109324 4.94447374 12.10546875 7.33203125 C12.8320166 7.75846924 13.55856445 8.18490723 14.30712891 8.62426758 C22.72806994 13.57218897 22.72806994 13.57218897 31.35546875 18.14453125 C31.35546875 18.80453125 31.35546875 19.46453125 31.35546875 20.14453125 C32.08797852 20.42361328 32.82048828 20.70269531 33.57519531 20.99023438 C36.13185245 22.05169161 38.44298992 23.23506439 40.83984375 24.61328125 C41.68361572 25.09667969 42.5273877 25.58007812 43.39672852 26.078125 C44.29061279 26.59503906 45.18449707 27.11195312 46.10546875 27.64453125 C47.0399585 28.18207031 47.97444824 28.71960937 48.93725586 29.2734375 C66.40473916 39.3389911 83.79353377 49.56681689 100.91796875 60.20703125 C106.19616094 63.4718924 111.54468947 66.60236505 116.91796875 69.70703125 C117.73289795 70.17842529 118.54782715 70.64981934 119.38745117 71.13549805 C122.93569391 73.18431167 126.48773694 75.22433959 130.0625 77.2265625 C135.15029759 80.10609282 139.51051343 82.65875004 143.35546875 87.14453125 C144.02578125 87.84835938 144.69609375 88.5521875 145.38671875 89.27734375 C151.74715224 96.06329919 151.74715224 96.06329919 152.35546875 101.14453125 C153.01546875 101.14453125 153.67546875 101.14453125 154.35546875 101.14453125 C154.99752777 102.40683176 155.61777736 103.68021818 156.23046875 104.95703125 C156.57851563 105.66472656 156.9265625 106.37242187 157.28515625 107.1015625 C160.9268531 117.45514589 160.65327623 128.20493791 160.64599609 139.0300293 C160.65199052 140.81847918 160.65879815 142.6069265 160.66635132 144.39537048 C160.68392633 149.22623186 160.68870312 154.05702225 160.68998289 158.88791251 C160.69140998 161.914167 160.69569012 164.94040376 160.70097733 167.96665382 C160.71945014 178.54736083 160.72765147 189.12801764 160.72607422 199.70874023 C160.72487387 209.53408328 160.74596246 219.3592063 160.77756155 229.18449372 C160.80380993 237.65114796 160.81443792 246.11773071 160.8131634 254.58442527 C160.81265624 259.62736854 160.81820209 264.67011608 160.8395195 269.71301842 C160.85904662 274.46152401 160.85892861 279.20965005 160.84448624 283.95816994 C160.84241479 285.68818855 160.84699805 287.41823185 160.85920715 289.14820862 C160.9528356 303.34923069 159.9816282 319.88310744 150.98046875 331.63671875 C150.5525 332.19617188 150.12453125 332.755625 149.68359375 333.33203125 C149.2453125 333.88890625 148.80703125 334.44578125 148.35546875 335.01953125 C147.9171875 335.59960938 147.47890625 336.1796875 147.02734375 336.77734375 C143.73883929 341.01674107 143.73883929 341.01674107 140.35546875 342.14453125 C140.35546875 342.80453125 140.35546875 343.46453125 140.35546875 344.14453125 C134.95287744 348.69161461 128.75792472 352.1211952 122.54296875 355.4140625 C118.57265563 357.56951435 114.68316087 359.84840846 110.79296875 362.14453125 C110.06190918 362.57531982 109.33084961 363.0061084 108.57763672 363.44995117 C103.73441727 366.31125845 98.91972564 369.21612474 94.140625 372.18359375 C92.35546875 373.14453125 92.35546875 373.14453125 90.35546875 373.14453125 C90.35546875 373.80453125 90.35546875 374.46453125 90.35546875 375.14453125 C89.71480469 375.44746094 89.07414062 375.75039063 88.4140625 376.0625 C83.68123135 378.35485488 79.36024696 380.71473762 75.17041016 383.88891602 C73.37322923 385.13224417 71.6065246 386.05973102 69.6328125 386.9921875 C65.41114533 389.06281934 61.49438668 391.47884654 57.54296875 394.01953125 C52.08209263 397.48438048 46.57915541 400.74560382 40.8671875 403.78515625 C36.60825452 406.09014642 32.49013909 408.6254817 28.35546875 411.14453125 C22.27695237 414.833979 16.14891578 418.4108211 9.95019531 421.89526367 C6.70023222 423.74112072 3.52355338 425.65816751 0.39453125 427.703125 C-8.06396492 433.223946 -15.88347366 437.27010938 -25.64453125 440.14453125 C-27.38476562 440.69173828 -27.38476562 440.69173828 -29.16015625 441.25 C-43.3954596 444.904579 -57.3414929 440.30181211 -69.64453125 433.14453125 C-71.03798726 432.21056426 -72.42689993 431.26980135 -73.8125 430.32421875 C-79.83425627 426.26083906 -86.23639872 422.95406416 -92.6484375 419.55664062 C-97.94766943 416.71592892 -102.80954505 413.71423029 -107.64453125 410.14453125 C-109.06299335 409.2992338 -110.49810725 408.48040261 -111.95703125 407.70703125 C-116.94507465 404.99923626 -121.7902578 402.08406351 -126.64453125 399.14453125 C-135.63706699 393.70404712 -144.68295218 388.3642094 -153.76953125 383.08203125 C-161.00642988 378.87282604 -168.20498922 374.6274791 -175.3125 370.203125 C-179.75493238 367.45850382 -184.22963361 364.76912864 -188.70703125 362.08203125 C-189.57279785 361.56141113 -190.43856445 361.04079102 -191.33056641 360.50439453 C-194.94822065 358.33435398 -198.56569101 356.17071978 -202.2421875 354.1015625 C-218.30164257 345.04610203 -230.42008767 333.4862036 -235.71765137 315.53660583 C-238.16803559 306.5761694 -238.20929394 297.8535178 -238.16210938 288.62133789 C-238.1675437 286.81259095 -238.17467363 285.00384844 -238.18334961 283.19511414 C-238.20143159 278.32720223 -238.19457824 273.45963319 -238.18183327 268.59171605 C-238.17162495 263.46896725 -238.18112064 258.34624558 -238.18737793 253.22349548 C-238.19463237 244.62363478 -238.18512542 236.02391198 -238.16601562 227.42407227 C-238.14425813 217.5190999 -238.15129909 207.61445711 -238.17332125 197.70949274 C-238.19154662 189.16630733 -238.19399865 180.6232204 -238.18356657 172.0800218 C-238.1773698 166.99468466 -238.17638962 161.90950176 -238.18971252 156.82417488 C-238.20137467 152.03946912 -238.19305865 147.25518295 -238.1701355 142.47052193 C-238.16490291 140.72761223 -238.16626704 138.98466643 -238.17518616 137.2417717 C-238.26684755 117.48993258 -234.52221396 102.29051554 -220.890625 87.37109375 C-216.94945314 83.46419295 -212.69199003 80.44900594 -207.93359375 77.61328125 C-206.85335937 76.96746094 -205.773125 76.32164063 -204.66015625 75.65625 C-202.98179687 74.66044922 -202.98179687 74.66044922 -201.26953125 73.64453125 C-200.15835938 72.98066406 -199.0471875 72.31679687 -197.90234375 71.6328125 C-189.22570492 66.4578172 -189.22570492 66.4578172 -184.90625 64.01171875 C-180.83045474 61.67850901 -176.83267744 59.22869844 -172.83203125 56.76953125 C-171.22281602 55.78359334 -169.61344254 54.79791369 -168.00390625 53.8125 C-167.24271484 53.34634277 -166.48152344 52.88018555 -165.69726562 52.39990234 C-159.89124793 48.84917173 -154.04176167 45.37552455 -148.17138672 41.93261719 C-140.23817448 37.27910872 -132.33948755 32.57104342 -124.45703125 27.83203125 C-113.72059868 21.37861578 -102.95213776 14.9818564 -92.15771484 8.62597656 C-89.73077188 7.19536748 -87.30642064 5.76046847 -84.8828125 4.32421875 C-53.67663698 -14.15067554 -31.86673699 -20.47710476 0 0 Z M-68.40283203 6.80517578 C-71.03223455 8.37617363 -73.67943316 9.91487828 -76.328125 11.453125 C-78.32968688 12.62064848 -80.33098882 13.7886177 -82.33203125 14.95703125 C-83.30108398 15.52019043 -84.27013672 16.08334961 -85.26855469 16.66357422 C-86.63608887 17.46819092 -86.63608887 17.46819092 -88.03125 18.2890625 C-88.84811279 18.76706299 -89.66497559 19.24506348 -90.5065918 19.73754883 C-92.65727622 21.04971734 -92.65727622 21.04971734 -94.24072266 22.74121094 C-96.08393665 24.58378381 -98.19937439 25.24328039 -100.58349609 26.20654297 C-104.77502397 28.11413005 -108.58000324 30.73752052 -112.45703125 33.20703125 C-120.01798603 37.96425403 -127.64540479 42.49966429 -135.51879883 46.72094727 C-139.14999713 48.68440074 -142.62087752 50.75688765 -146.0390625 53.07421875 C-150.74441491 56.26313273 -155.62457504 59.05688274 -160.58203125 61.83203125 C-168.32433041 66.20652667 -175.96721685 70.7076548 -183.51928711 75.40307617 C-187.05166249 77.59243274 -190.605829 79.69643893 -194.25 81.6953125 C-208.74437642 89.67828751 -221.22267613 99.46685899 -226.01015091 115.92517281 C-227.3973296 122.96483837 -227.05939173 130.21504307 -227.03271484 137.36303711 C-227.03678544 139.19886079 -227.04213005 141.03468202 -227.04864502 142.87049866 C-227.06226735 147.83335836 -227.05704076 152.79602998 -227.04750776 157.75889277 C-227.03988361 162.96675398 -227.04696451 168.17459967 -227.05166626 173.38246155 C-227.05711628 182.12731805 -227.04995248 190.87209843 -227.03564453 199.61694336 C-227.01932461 209.70760865 -227.02460482 219.79809201 -227.04112375 229.88875288 C-227.05476619 238.57187288 -227.05664465 247.25493832 -227.04880774 255.93806559 C-227.04414572 261.11551394 -227.04346565 266.29287697 -227.05341721 271.47031975 C-227.06212461 276.34023557 -227.05599635 281.20991837 -227.03873444 286.07980919 C-227.03478946 287.86029423 -227.03586927 289.64079911 -227.04252243 291.42127609 C-227.08243263 303.19297949 -226.84898726 314.20352042 -220.08203125 324.33203125 C-219.48261719 325.25371094 -218.88320312 326.17539062 -218.265625 327.125 C-217.73066406 327.79144531 -217.19570312 328.45789063 -216.64453125 329.14453125 C-215.98453125 329.14453125 -215.32453125 329.14453125 -214.64453125 329.14453125 C-214.39703125 329.73492187 -214.14953125 330.3253125 -213.89453125 330.93359375 C-209.34505004 338.98048863 -197.83529741 343.81491635 -190.015625 348.16796875 C-188.68348364 348.90995859 -187.35145582 349.65215232 -186.01953125 350.39453125 C-185.34196777 350.77174316 -184.6644043 351.14895508 -183.96630859 351.53759766 C-178.24660769 354.74797583 -172.69158207 358.18724897 -167.15161133 361.6965332 C-163.88346809 363.76209018 -160.62131472 365.76326871 -157.20703125 367.58203125 C-152.72596186 369.99028351 -148.52105708 372.79615211 -144.26953125 375.58203125 C-138.80912961 379.15403664 -133.3420981 382.52104145 -127.56640625 385.56640625 C-117.74251159 390.87236005 -108.22917122 396.78126445 -98.66333008 402.53613281 C-86.73351978 409.70554237 -74.75826177 416.80589145 -62.70703125 423.76953125 C-61.68738281 424.35992187 -60.66773438 424.9503125 -59.6171875 425.55859375 C-53.16234485 429.00230744 -48.43435861 430.58991393 -41.20703125 430.33203125 C-40.1097168 430.31172852 -40.1097168 430.31172852 -38.99023438 430.29101562 C-37.20800703 430.25606999 -35.42616552 430.2022793 -33.64453125 430.14453125 C-34.04285156 429.74363281 -34.44117188 429.34273438 -34.8515625 428.9296875 C-35.38136719 428.36121094 -35.91117188 427.79273438 -36.45703125 427.20703125 C-36.97910156 426.66175781 -37.50117188 426.11648438 -38.0390625 425.5546875 C-43.8842769 416.77975493 -43.07170892 406.74540825 -43.03271484 396.66625977 C-43.03678479 394.89792558 -43.04212905 393.12959395 -43.04864502 391.36126709 C-43.06227505 386.57815939 -43.05703756 381.79524668 -43.04750776 377.01213574 C-43.03988758 371.99465251 -43.04696342 366.97718546 -43.05166626 361.95970154 C-43.05711745 353.53422056 -43.04994942 345.10881858 -43.03564453 336.68334961 C-43.01932456 326.95906696 -43.02460437 317.2349731 -43.04112375 307.51069504 C-43.05476308 299.14522968 -43.05664616 290.77982096 -43.04880774 282.41434807 C-43.04414399 277.42526943 -43.04347045 272.43627935 -43.05341721 267.4472065 C-43.06212007 262.75459132 -43.05600459 258.06221811 -43.03873444 253.36962891 C-43.03478704 251.65322711 -43.0358735 249.93680476 -43.04252243 248.2204113 C-43.08966233 234.80900606 -42.14580539 222.84854253 -32.33203125 212.76953125 C-31.77515625 212.23328125 -31.21828125 211.69703125 -30.64453125 211.14453125 C-30.64453125 210.48453125 -30.64453125 209.82453125 -30.64453125 209.14453125 C-29.98453125 208.93828125 -29.32453125 208.73203125 -28.64453125 208.51953125 C-26.06591267 207.3376644 -24.42938159 206.2766196 -22.24609375 204.546875 C-16.77028136 200.380659 -10.89821061 196.8945465 -5.01953125 193.33203125 C-2.67443318 191.90194172 -0.33127045 190.46869759 2.01171875 189.03515625 C3.12160156 188.35646484 4.23148438 187.67777344 5.375 186.97851562 C9.82744323 184.238775 14.21268367 181.40497946 18.59765625 178.55859375 C23.89787665 175.13509331 29.25563225 171.80219683 34.60546875 168.45703125 C35.6123877 167.82659912 36.61930664 167.19616699 37.65673828 166.54663086 C45.08945199 161.90470465 52.58797989 157.38272856 60.12109375 152.90625 C66.64154254 149.02982251 73.08878287 145.07016641 79.4543457 140.94213867 C89.33910573 134.54659703 99.35223435 128.35235967 109.35546875 122.14453125 C110.16951172 121.63696289 110.98355469 121.12939453 111.82226562 120.60644531 C113.89088544 119.31920373 115.9653509 118.04218174 118.04296875 116.76953125 C119.16058594 116.08117187 120.27820313 115.3928125 121.4296875 114.68359375 C127.06455044 111.71946024 133.09269365 111.55332528 139.35546875 112.14453125 C142.85546875 113.58203125 142.85546875 113.58203125 145.35546875 115.14453125 C146.01546875 115.47453125 146.67546875 115.80453125 147.35546875 116.14453125 C144.57413516 105.01919689 138.99627639 95.71780919 129.35546875 89.14453125 C126.78074445 87.69455493 124.18122791 86.2973557 121.57421875 84.90625 C113.13271987 80.2859636 104.96957987 75.15133096 96.79296875 70.08203125 C91.79013451 66.98970409 86.71637464 64.04332178 81.59667969 61.15087891 C77.52156185 58.83861845 73.52442891 56.42748325 69.54296875 53.95703125 C61.46874421 48.08157076 61.46874421 48.08157076 52.35546875 45.14453125 C52.35546875 44.48453125 52.35546875 43.82453125 52.35546875 43.14453125 C51.24171875 42.60828125 50.12796875 42.07203125 48.98046875 41.51953125 C42.87653583 38.46221984 37.11761931 34.85798887 31.3203125 31.26171875 C25.06499447 27.38539774 18.770593 23.62853883 12.36938477 20 C9.06949538 18.12824292 5.79122325 16.22949498 2.54296875 14.26953125 C1.77210938 13.80546875 1.00125 13.34140625 0.20703125 12.86328125 C-1.42171915 11.88156868 -3.04998024 10.89904075 -4.67675781 9.9140625 C-6.97463582 8.52598907 -9.27795887 7.14729366 -11.58203125 5.76953125 C-12.70218628 5.08914795 -12.70218628 5.08914795 -13.8449707 4.39501953 C-14.55097412 3.97462402 -15.25697754 3.55422852 -15.984375 3.12109375 C-16.93364868 2.5499585 -16.93364868 2.5499585 -17.90209961 1.96728516 C-19.7755096 0.93104105 -19.7755096 0.93104105 -22.64453125 1.14453125 C-22.64453125 0.48453125 -22.64453125 -0.17546875 -22.64453125 -0.85546875 C-39.3643279 -6.4287343 -53.92104446 -1.91399996 -68.40283203 6.80517578 Z "
     fill="#FBFBFB"
     transform="translate(270.64453125,22.85546875)"
     id="path3"
     style="fill:#282e34;fill-opacity:1" />
  <path
     d="M0 0 C0.99 0.33 1.98 0.66 3 1 C3 5.29 3 9.58 3 14 C3.66 13.67 4.32 13.34 5 13 C7.04055005 12.92934383 9.08334257 12.91578024 11.125 12.9375 C12.22070312 12.94652344 13.31640625 12.95554687 14.4453125 12.96484375 C15.70988281 12.98224609 15.70988281 12.98224609 17 13 C16.88544319 14.91731918 16.75793742 16.8338675 16.625 18.75 C16.55539062 19.81734375 16.48578125 20.8846875 16.4140625 21.984375 C15.75887767 26.75609849 15.75887767 26.75609849 14 29 C11.609375 29.50390625 11.609375 29.50390625 8.75 29.5625 C1.7415688 29.96507307 -2.81281356 32.2450791 -8 37 C-10.75481027 40.67308035 -10.21320713 44.59371938 -10 49 C-9.67 49.66 -9.34 50.32 -9 51 C-6.67830069 51.37313025 -4.34045667 51.6474556 -2 51.875 C5.60648773 52.75041775 12.08021203 53.93422263 17.5 59.625 C21.90990052 66.60734249 20.9523718 77.37419411 19.31640625 85.3203125 C16.79708215 92.65875864 11.2061706 104.3969147 4 108 C3.92855038 109.84087839 3.86821849 111.68314052 3.87548828 113.52539062 C3.87342927 122.90624623 3.87342927 122.90624623 1.265625 126.171875 C-1.96998557 128.17937061 -4.17225972 129 -8 129 C-8 124.71 -8 120.42 -8 116 C-9.423125 116.495 -9.423125 116.495 -10.875 117 C-15.55447256 118.3644458 -20.16823759 118.17499341 -25 118 C-26.29477815 113.61078349 -25.6054454 110.94228883 -24.0625 106.6875 C-23.49208984 105.08455078 -23.49208984 105.08455078 -22.91015625 103.44921875 C-22.60980469 102.64097656 -22.30945313 101.83273437 -22 101 C-21.154375 100.97421875 -20.30875 100.9484375 -19.4375 100.921875 C-12.26407551 100.56320378 -7.0842279 99.9030896 -1 96 C-0.34 95.01 0.32 94.02 1 93 C1.66 93 2.32 93 3 93 C4.91950434 87.48142502 5.99295853 81.84030448 5 76 C1.30555978 73.53703985 -0.72323379 73.77197834 -5.125 73.6875 C-11.51693052 73.4069499 -17.20315219 72.54836245 -22 68 C-26.71157291 60.42474172 -26.03396998 51.7352828 -24.19140625 43.296875 C-21.49789042 34.83420244 -17.41714731 28.17760743 -11 22 C-10.34 22 -9.68 22 -9 22 C-9.05800781 21.04738281 -9.11601562 20.09476562 -9.17578125 19.11328125 C-9.54763263 8.77581289 -9.54763263 8.77581289 -6.75 4.8125 C-5.8425 4.214375 -4.935 3.61625 -4 3 C-3.29875 2.38125 -2.5975 1.7625 -1.875 1.125 C-1.25625 0.75375 -0.6375 0.3825 0 0 Z "
     fill="#2C3339"
     transform="translate(289,259)"
     id="path4"
     style="fill:#ffffff;fill-opacity:1" />
  <path
     d="M0 0 C0.13504138 1.93559313 0.23201129 3.873872 0.3125 5.8125 C0.37050781 6.89144531 0.42851562 7.97039062 0.48828125 9.08203125 C0 12 0 12 -2.39453125 13.88671875 C-5 15 -5 15 -7 15 C-7.33 15.99 -7.66 16.98 -8 18 C-9.93359375 19.17578125 -9.93359375 19.17578125 -12.4375 20.3125 C-18.66896561 23.2726684 -24.5148459 26.73967935 -30.30078125 30.4921875 C-31.00589844 30.94851563 -31.71101563 31.40484375 -32.4375 31.875 C-33.05496094 32.28492188 -33.67242187 32.69484375 -34.30859375 33.1171875 C-36 34 -36 34 -39 34 C-39.60374851 29.8542602 -39.84568938 26.12273572 -39 22 C-36.13422908 19.06258481 -32.70794131 17.66959788 -29 16 C-27.44432478 15.10731388 -25.90235903 14.19031287 -24.375 13.25 C-23.56675781 12.76789063 -22.75851562 12.28578125 -21.92578125 11.7890625 C-19.57196403 10.34974569 -17.24209889 8.88464495 -14.91796875 7.3984375 C-14.20012207 6.94178711 -13.48227539 6.48513672 -12.74267578 6.01464844 C-11.30638897 5.09915633 -9.87365937 4.17805568 -8.44482422 3.25097656 C-3.33418942 0 -3.33418942 0 0 0 Z "
     fill="#52A433"
     transform="translate(367,338)"
     id="path5" />
</svg>
