<?xml version="1.0" encoding="UTF-8" standalone="no"?>
<!-- Created with Inkscape (http://www.inkscape.org/) -->

<svg
   width="444.84726"
   height="547.72998"
   viewBox="0 0 117.69917 144.92023"
   version="1.1"
   id="svg1"
   xml:space="preserve"
   inkscape:version="1.3.2 (091e20ef0f, 2023-11-25, custom)"
   sodipodi:docname="tour.svg"
   xmlns:inkscape="http://www.inkscape.org/namespaces/inkscape"
   xmlns:sodipodi="http://sodipodi.sourceforge.net/DTD/sodipodi-0.dtd"
   xmlns="http://www.w3.org/2000/svg"
   xmlns:svg="http://www.w3.org/2000/svg"><sodipodi:namedview
     id="namedview1"
     pagecolor="#ffffff"
     bordercolor="#000000"
     borderopacity="0.25"
     inkscape:showpageshadow="2"
     inkscape:pageopacity="0.0"
     inkscape:pagecheckerboard="0"
     inkscape:deskcolor="#d1d1d1"
     inkscape:document-units="mm"
     showguides="false"
     inkscape:zoom="0.50646226"
     inkscape:cx="-61.208905"
     inkscape:cy="426.48785"
     inkscape:window-width="1920"
     inkscape:window-height="1008"
     inkscape:window-x="0"
     inkscape:window-y="0"
     inkscape:window-maximized="1"
     inkscape:current-layer="layer2" /><defs
     id="defs1" /><g
     inkscape:groupmode="layer"
     id="layer2"
     inkscape:label="Layer 2"
     transform="translate(-199.08604,-131.96971)"><path
       style="fill:#feb193;stroke:#093945;stroke-width:3;stroke-linecap:round;stroke-linejoin:round;stroke-dasharray:none"
       d="m 200.58582,275.20522 23.08769,-22.16418 h 67.60074 l 24.01119,22.34889 z"
       id="path2" /><path
       id="path1"
       style="fill:#feb193;stroke:#093945;stroke-width:3;stroke-linecap:round;stroke-linejoin:round;stroke-dasharray:none"
       d="m 257.75095,133.46971 c -26.01716,0 -47.10824,21.09107 -47.10824,47.10823 2.2203,28.3555 36.41257,71.40729 39.25859,75.41814 2.84602,4.01085 11.80261,3.99181 14.96084,0 3.15823,-3.99181 39.82473,-47.96755 39.99704,-74.37331 0,-26.01716 -21.09107,-48.15306 -47.10823,-48.15306 z"
       sodipodi:nodetypes="sczzcs" /><path
       id="path7"
       style="fill:#ffffff;fill-opacity:1;stroke:#093945;stroke-width:1;stroke-linecap:round;stroke-linejoin:round;stroke-dasharray:none"
       d="m 236.57956,152.34936 c -0.66928,0 -1.20819,0.5384 -1.20819,1.20768 v 3.64783 a 10.513597,10.513597 0 0 0 -9.17205,9.02116 h -4.41059 c -0.66927,0 -1.20819,0.5384 -1.20819,1.20768 0,0.66928 0.53892,1.20819 1.20819,1.20819 h 4.38268 a 10.513597,10.513597 0 0 0 9.19996,9.41286 v 3.64784 c 0,0.66928 0.53891,1.20768 1.20819,1.20768 0.66928,0 1.2082,-0.5384 1.2082,-1.20768 v -3.64318 a 10.513597,10.513597 0 0 0 9.2661,-9.41752 h 4.57801 c 0.66928,0 1.2082,-0.53891 1.2082,-1.20819 0,-0.66928 -0.53892,-1.20768 -1.2082,-1.20768 h -4.6023 a 10.513597,10.513597 0 0 0 -9.24181,-9.04183 v -3.62716 c 0,-0.66928 -0.53892,-1.20768 -1.2082,-1.20768 z m 1.2082,6.76082 a 8.6033506,8.6033506 0 0 1 7.3117,7.11585 h -3.19774 c -0.66928,0 -1.2082,0.5384 -1.2082,1.20768 0,0.66928 0.53892,1.20819 1.2082,1.20819 h 3.23443 a 8.6033506,8.6033506 0 0 1 -7.34839,7.49877 v -4.16822 c 0,-0.66928 -0.53892,-1.2082 -1.2082,-1.2082 -0.66928,0 -1.20819,0.53892 -1.20819,1.2082 v 4.16305 a 8.6033506,8.6033506 0 0 1 -7.28276,-7.4936 h 3.43028 c 0.66928,0 1.20819,-0.53891 1.20819,-1.20819 0,-0.66928 -0.53891,-1.20768 -1.20819,-1.20768 h -3.38997 a 8.6033506,8.6033506 0 0 1 7.24245,-7.10189 v 4.16305 c 0,0.66928 0.53891,1.2082 1.20819,1.2082 0.66928,0 1.2082,-0.53892 1.2082,-1.2082 z" /><path
       id="path11"
       style="fill:#ffffff;fill-opacity:1;stroke:#093945;stroke-width:1;stroke-linecap:round;stroke-linejoin:round;stroke-dasharray:none"
       d="m 280.48943,152.34936 c -0.66928,0 -1.2082,0.5384 -1.2082,1.20768 v 3.64783 a 10.513597,10.513597 0 0 0 -9.27282,10.42521 10.513597,10.513597 0 0 0 9.27282,10.42468 v 3.64784 c 0,0.66928 0.53892,1.20768 1.2082,1.20768 0.66927,0 1.20819,-0.5384 1.20819,-1.20768 v -3.64318 a 10.513597,10.513597 0 0 0 9.33793,-10.42934 10.513597,10.513597 0 0 0 -9.33793,-10.44588 v -3.62716 c 0,-0.66928 -0.53892,-1.20768 -1.20819,-1.20768 z m 1.20819,6.76082 a 8.6033506,8.6033506 0 0 1 7.42746,8.5199 8.6033506,8.6033506 0 0 1 -7.42746,8.51059 v -4.16822 c 0,-0.66928 -0.53892,-1.2082 -1.20819,-1.2082 -0.66928,0 -1.2082,0.53892 -1.2082,1.2082 v 4.16305 a 8.6033506,8.6033506 0 0 1 -7.36286,-8.50542 8.6033506,8.6033506 0 0 1 7.36286,-8.50594 v 4.16305 c 0,0.66928 0.53892,1.2082 1.2082,1.2082 0.66927,0 1.20819,-0.53892 1.20819,-1.2082 z" /><g
       id="g26"><path
         id="rect4"
         style="fill:#ffffff;fill-opacity:1;stroke:#093945;stroke-width:1;stroke-linecap:round;stroke-linejoin:round;stroke-dasharray:none"
         d="m 258.387,174.45033 -11.91297,6.78822 c 0.36871,0 -0.67799,0.33418 -0.67799,1.58027 v 37.27472 c 0,1.07077 0.86193,1.9327 1.9327,1.9327 h 21.47155 c 1.07077,0 1.9327,-0.86193 1.9327,-1.9327 v -37.27472 c 0,-0.844 -0.53864,-1.55069 -1.28984,-1.8154 z"
         sodipodi:nodetypes="ccsssssscc" /><rect
         style="fill:#ffffff;fill-opacity:1;stroke:#093945;stroke-width:1;stroke-linecap:round;stroke-linejoin:round;stroke-dasharray:none"
         id="rect3"
         width="20.112967"
         height="32.389713"
         x="226.07495"
         y="189.50594"
         ry="1.9327971" /><rect
         style="fill:#ffffff;fill-opacity:1;stroke:#093945;stroke-width:1;stroke-linecap:round;stroke-linejoin:round;stroke-dasharray:none"
         id="rect5"
         width="20.112967"
         height="33.695747"
         x="270.08841"
         y="188.72231"
         ry="1.9327971" /><rect
         style="fill:#093945;fill-opacity:1;stroke:#093945;stroke-width:0.499999;stroke-linecap:round;stroke-linejoin:round;stroke-dasharray:none"
         id="rect25"
         width="10.121785"
         height="11.950236"
         x="252.91402"
         y="206.2885"
         ry="0" /><rect
         style="fill:#ffffff;fill-opacity:1;stroke:#093945;stroke-width:1;stroke-linecap:round;stroke-linejoin:round;stroke-dasharray:none"
         id="rect2"
         width="35.132389"
         height="6.39958"
         x="240.57196"
         y="216.93271"
         ry="1.9327971" /><rect
         style="fill:#ffffff;fill-opacity:1;stroke:#093945;stroke-width:1;stroke-linecap:round;stroke-linejoin:round;stroke-dasharray:none"
         id="rect6"
         width="85.67601"
         height="5.2241473"
         x="215.36546"
         y="219.93658"
         ry="1.9327971" /><rect
         style="fill:#093945;fill-opacity:1;stroke:#093945;stroke-width:0.5;stroke-linecap:round;stroke-linejoin:round;stroke-dasharray:none"
         id="rect15"
         width="4.6364307"
         height="7.379108"
         x="230.4502"
         y="195.2525"
         ry="0.48976389" /><rect
         style="fill:#093945;fill-opacity:1;stroke:#093945;stroke-width:0.5;stroke-linecap:round;stroke-linejoin:round;stroke-dasharray:none"
         id="rect16"
         width="4.6364307"
         height="7.379108"
         x="237.63339"
         y="195.2525"
         ry="0.48976389" /><rect
         style="fill:#093945;fill-opacity:1;stroke:#093945;stroke-width:0.5;stroke-linecap:round;stroke-linejoin:round;stroke-dasharray:none"
         id="rect17"
         width="4.6364307"
         height="7.379108"
         x="237.63339"
         y="206.68033"
         ry="0.48976389" /><rect
         style="fill:#093945;fill-opacity:1;stroke:#093945;stroke-width:0.5;stroke-linecap:round;stroke-linejoin:round;stroke-dasharray:none"
         id="rect18"
         width="4.6364307"
         height="7.379108"
         x="230.4502"
         y="206.68033"
         ry="0.48976389" /><rect
         style="fill:#093945;fill-opacity:1;stroke:#093945;stroke-width:0.5;stroke-linecap:round;stroke-linejoin:round;stroke-dasharray:none"
         id="rect19"
         width="4.6364307"
         height="7.379108"
         x="251.47739"
         y="195.2525"
         ry="0.48976389" /><rect
         style="fill:#093945;fill-opacity:1;stroke:#093945;stroke-width:0.5;stroke-linecap:round;stroke-linejoin:round;stroke-dasharray:none"
         id="rect20"
         width="4.6364307"
         height="7.379108"
         x="259.70541"
         y="195.2525"
         ry="0.48976389" /><rect
         style="fill:#093945;fill-opacity:1;stroke:#093945;stroke-width:0.5;stroke-linecap:round;stroke-linejoin:round;stroke-dasharray:none"
         id="rect21"
         width="4.6364307"
         height="7.379108"
         x="273.4841"
         y="195.2525"
         ry="0.48976389" /><rect
         style="fill:#093945;fill-opacity:1;stroke:#093945;stroke-width:0.5;stroke-linecap:round;stroke-linejoin:round;stroke-dasharray:none"
         id="rect22"
         width="4.6364307"
         height="7.379108"
         x="281.1897"
         y="195.2525"
         ry="0.48976389" /><rect
         style="fill:#093945;fill-opacity:1;stroke:#093945;stroke-width:0.5;stroke-linecap:round;stroke-linejoin:round;stroke-dasharray:none"
         id="rect23"
         width="4.6364307"
         height="7.379108"
         x="281.05911"
         y="206.68033"
         ry="0.48976389" /><rect
         style="fill:#093945;fill-opacity:1;stroke:#093945;stroke-width:0.5;stroke-linecap:round;stroke-linejoin:round;stroke-dasharray:none"
         id="rect24"
         width="4.6364307"
         height="7.379108"
         x="273.87592"
         y="206.68033"
         ry="0.48976389" /><path
         id="path25"
         style="fill:#093945;fill-opacity:1;stroke:#093945;stroke-width:0.499999;stroke-linecap:round;stroke-linejoin:round;stroke-dasharray:none"
         d="m 257.81174,181.21271 a 5.2894487,5.2894487 0 0 0 -5.2896,5.28908 5.2894487,5.2894487 0 0 0 5.2896,5.2896 5.2894487,5.2894487 0 0 0 5.2896,-5.2896 5.2894487,5.2894487 0 0 0 -5.2896,-5.28908 z m 0.004,2.36161 a 2.946996,2.946996 0 0 1 2.9471,2.94711 2.946996,2.946996 0 0 1 -2.9471,2.94659 2.946996,2.946996 0 0 1 -2.94659,-2.94659 2.946996,2.946996 0 0 1 2.94659,-2.94711 z" /></g><path
       style="fill:#ffffff;fill-opacity:1;stroke:#093945;stroke-width:0.499999;stroke-linecap:round;stroke-linejoin:round;stroke-dasharray:none"
       d="m 256.0867,270.9227 h 3.26509 l -0.42447,-5.94247 h -2.31821 z"
       id="path26"
       sodipodi:nodetypes="ccccc" /><path
       style="fill:#ffffff;fill-opacity:1;stroke:#093945;stroke-width:0.499999;stroke-linecap:round;stroke-linejoin:round;stroke-dasharray:none"
       d="m 229.87777,266.13807 3.18932,0.69933 0.85817,-5.89547 -2.26441,-0.49653 z"
       id="path27"
       sodipodi:nodetypes="ccccc" /><path
       style="fill:#ffffff;fill-opacity:1;stroke:#093945;stroke-width:0.499999;stroke-linecap:round;stroke-linejoin:round;stroke-dasharray:none"
       d="m 284.62582,266.13807 -3.18932,0.69933 -0.85817,-5.89547 2.26441,-0.49653 z"
       id="path29"
       sodipodi:nodetypes="ccccc" /><path
       d="m 246.3798,153.90834 q -0.93966,0 -1.82806,-0.30752 -0.8884,-0.32461 -1.43511,-0.97383 l 0.97382,-1.41803 0.10251,-0.13668 0.13668,0.0854 q 0.0342,0.13668 0.0683,0.27336 0.0513,0.13668 0.25627,0.34169 0.30752,0.27336 0.71756,0.4442 0.41003,0.15377 0.92257,0.15377 0.82007,0 1.24718,-0.46129 0.4442,-0.47837 0.4442,-1.2301 0,-1.05925 -0.71755,-1.46928 -0.70048,-0.41004 -2.08434,-0.25627 v -1.50346 q 1.008,0.0171 1.55471,-0.18793 0.5638,-0.2221 0.7859,-0.59796 0.2221,-0.37587 0.2221,-0.80298 0,-0.63214 -0.39295,-0.99092 -0.37586,-0.37586 -1.02508,-0.37586 -0.51254,0 -1.008,0.20502 -0.47837,0.18793 -0.85423,0.61505 l -1.11051,-1.12759 q 0.59797,-0.70048 1.41803,-0.99092 0.82007,-0.29044 1.62305,-0.29044 0.93966,0 1.65721,0.35878 0.73465,0.35878 1.14468,0.97383 0.41003,0.61505 0.41003,1.41803 0,0.8884 -0.51254,1.52054 -0.49546,0.61505 -1.14467,0.87132 0.49545,0.17084 0.93965,0.51254 0.46129,0.34169 0.73465,0.8884 0.29044,0.54671 0.29044,1.29844 0,0.8884 -0.42712,1.60596 -0.42712,0.70047 -1.2301,1.12759 -0.7859,0.42712 -1.87932,0.42712 z m 8.96947,-0.0171 q -1.14467,0 -1.94766,-0.63214 -0.78589,-0.63213 -1.21301,-1.75972 -0.41003,-1.14468 -0.41003,-2.6823 0,-1.87932 0.51254,-3.19484 0.51254,-1.33261 1.41803,-2.03308 0.90549,-0.70047 2.06725,-0.70047 0.70047,0 1.41803,0.25627 0.71756,0.23918 1.28135,0.7859 l -1.05925,1.17884 -0.10251,0.13668 -0.13668,-0.10251 q 0,-0.15376 -0.1025,-0.23919 -0.0854,-0.0854 -0.30753,-0.23918 -0.37586,-0.17085 -0.82007,-0.17085 -0.3246,0 -0.70047,0.11959 -0.35878,0.10251 -0.70047,0.44421 -0.34169,0.3246 -0.58088,0.95674 -0.23919,0.61505 -0.29044,1.62304 0.34169,-0.4442 0.87132,-0.68338 0.54671,-0.25627 1.09342,-0.25627 0.85424,0 1.53762,0.39294 0.68339,0.39295 1.07634,1.16176 0.41003,0.76882 0.41003,1.93058 0,1.05925 -0.42712,1.8964 -0.42711,0.83715 -1.17884,1.3326 -0.75173,0.47838 -1.70847,0.47838 z m 0.0342,-1.55471 q 0.64922,0 1.05925,-0.58088 0.42712,-0.59797 0.42712,-1.57179 0,-1.008 -0.47837,-1.48637 -0.46129,-0.47838 -1.02508,-0.47838 -0.52963,0 -0.93966,0.32461 -0.39295,0.32461 -0.70048,0.83715 -0.0683,1.29844 0.39295,2.13559 0.46129,0.83715 1.26427,0.82007 z m 8.33733,1.57179 q -1.6743,0 -2.66521,-1.41803 -0.97383,-1.41803 -0.97383,-4.04907 0,-2.59688 0.97383,-4.06616 0.99091,-1.46929 2.66521,-1.46929 1.6743,0 2.64813,1.46929 0.99091,1.46928 0.99091,4.06616 0,2.63104 -0.99091,4.04907 -0.97383,1.41803 -2.64813,1.41803 z m -1.84514,-5.4671 q 0,0.70047 0.0683,1.29843 l 3.28027,-3.89531 q -0.46129,-1.38386 -1.50346,-1.38386 -0.92257,0 -1.38386,1.05925 -0.46128,1.04217 -0.46128,2.92149 z m 1.84514,3.98073 q 0.92258,0 1.38386,-1.02508 0.46129,-1.04217 0.46129,-2.95565 0,-0.66631 -0.0683,-1.24719 l -3.28026,3.87823 q 0.46129,1.34969 1.50345,1.34969 z m 8.64486,-5.245 q -0.70047,0 -1.28135,-0.32461 -0.5638,-0.32461 -0.90549,-0.87132 -0.32461,-0.5638 -0.32461,-1.2301 0,-0.68339 0.34169,-1.2301 0.35878,-0.54671 0.92258,-0.87132 0.58088,-0.32461 1.24718,-0.32461 0.70047,0 1.26427,0.3417 0.58088,0.32461 0.90549,0.8884 0.34169,0.54671 0.34169,1.19593 0,0.64922 -0.34169,1.21301 -0.32461,0.54671 -0.90549,0.88841 -0.5638,0.32461 -1.26427,0.32461 z m 0,-1.38386 q 0.39295,0 0.64922,-0.29044 0.25627,-0.30753 0.25627,-0.76881 0,-0.46129 -0.25627,-0.76882 -0.25627,-0.30752 -0.64922,-0.30752 -0.39295,0 -0.64922,0.30752 -0.23918,0.30753 -0.23918,0.76882 0,0.46128 0.23918,0.76881 0.25627,0.29044 0.64922,0.29044 z"
       id="text29"
       style="font-weight:bold;font-size:17.0847px;font-family:Inconsolata;-inkscape-font-specification:'Inconsolata Bold';fill:#ffffff;stroke:#093945;stroke-linecap:round;stroke-linejoin:round"
       aria-label="360°" /></g></svg>
